<svg width="19" height="19" viewBox="0 0 19 19" fill="none" xmlns="http://www.w3.org/2000/svg">
<g clip-path="url(#clip0_795_29889)">
<path d="M10.8571 6.37385C11.0791 6.37385 11.266 6.19144 11.2777 5.97484C11.2777 5.74684 11.0907 5.55304 10.8688 5.55304C10.6468 5.55304 10.4599 5.73544 10.4482 5.95204C10.4482 6.18004 10.6351 6.37385 10.8571 6.37385Z" fill="#1F2937" stroke="#1F2937" stroke-width="0.30001" stroke-miterlimit="10"/>
<path d="M8.77695 6.33962C8.99893 6.33962 9.18585 6.16862 9.19754 5.94062C9.19754 5.71261 9.02229 5.53021 8.80032 5.53021C8.57834 5.53021 8.37973 5.71261 8.37973 5.92922C8.36805 6.14582 8.55498 6.33962 8.77695 6.33962Z" fill="#1F2937" stroke="#1F2937" stroke-width="0.30001" stroke-miterlimit="10"/>
<path d="M5.06307 3.25939C5.02802 3.15679 4.93455 3.12259 4.80604 3.16819C4.45556 3.29359 4.10507 3.419 3.75458 3.5444C3.63775 3.5786 3.59102 3.6698 3.62607 3.7724C3.66112 3.875 3.76626 3.9092 3.88309 3.8636C4.05834 3.8066 4.23358 3.7382 4.39714 3.6812C4.57238 3.6242 4.74763 3.5558 4.91119 3.4988C5.05138 3.4532 5.09812 3.362 5.06307 3.25939Z" fill="#1F2937" stroke="#1F2937" stroke-width="0.30001" stroke-miterlimit="10"/>
<path d="M17.9721 8.53979C17.8086 7.95838 17.4464 7.53658 16.8622 7.31998C16.6519 7.24018 16.4417 7.20598 16.2197 7.30858C16.1029 7.36558 15.9743 7.39978 15.8458 7.44538C15.0047 7.73038 14.4556 7.57078 13.8013 7.01218H13.7896C14.07 6.97797 14.3154 6.87537 14.514 6.70437C14.6308 6.76137 14.7593 6.79557 14.8878 6.82977C16.1496 7.10338 17.3763 6.33957 17.6567 5.13116C17.9371 3.91135 17.166 2.70294 15.9159 2.42934C14.9696 2.22414 14.035 2.60034 13.5092 3.32995C13.3691 3.19315 13.2055 3.07915 13.0302 2.97654C12.6681 2.77134 12.2825 2.64594 11.8736 2.78274C11.6984 2.80554 11.5816 2.79414 11.418 2.69154C10.9741 2.40654 10.4717 2.30394 9.94596 2.29254C9.3034 2.26974 8.69588 2.38374 8.15847 2.74854C8.11174 2.78274 8.07669 2.77134 8.04164 2.74854C7.92481 2.68014 7.80798 2.64594 7.67947 2.63454L7.64442 2.55474L7.51591 2.21274C7.37571 1.85934 7.04859 1.63133 6.68642 1.61993H6.65137H6.55791H6.51118H6.48781L6.46445 1.63133L1.47584 3.39835L1.45248 3.40975L1.44079 3.42115C0.868332 3.82015 0.973478 4.32175 1.10199 4.66376C1.73287 6.32817 2.35206 7.99258 2.97126 9.657L3.61382 11.3784L3.85916 12.0168C4.05777 12.5526 4.25638 13.0884 4.45499 13.6242C4.5835 13.9776 4.91062 14.2056 5.28447 14.217H5.31952H5.4013H5.44803H5.4714L5.49477 14.2056L9.29171 12.8604L10.4834 12.4386L10.5184 12.4272L10.5301 12.4158C10.9857 12.0168 11.0675 11.7432 10.8572 11.1732L10.7988 11.0364L10.7754 10.9794C10.9156 10.968 11.0558 10.9452 11.196 10.9224C11.2544 10.9452 11.3245 10.9794 11.383 11.0022C13.0186 11.367 14.4672 11.7318 16.1029 12.0966C16.1262 12.0852 16.1496 12.0852 16.1613 12.0966C16.9908 12.1878 17.6917 11.7204 17.8903 10.9224C17.9604 10.6602 18.0072 10.3866 18.0422 10.113C18.1123 9.58859 18.124 9.05279 17.9721 8.53979ZM15.7991 2.93094C16.7454 3.14755 17.3296 4.04815 17.1193 4.98296C16.8973 5.90637 15.9743 6.47637 15.0163 6.27117C14.9579 6.24837 14.9112 6.23697 14.8528 6.21417C14.8878 6.12297 14.9229 6.04317 14.9462 5.94057C14.9462 5.84937 14.9462 5.75817 14.9462 5.66697C14.9112 5.45036 14.8528 5.23376 14.771 5.02856C14.5607 4.53836 14.257 4.10515 13.9065 3.70615C14.292 3.10195 15.0397 2.75994 15.7991 2.93094ZM12.9251 3.59215C13.2756 3.87715 13.556 4.21915 13.813 4.58396C14.0116 4.86896 14.1869 5.16536 14.2803 5.50736C14.4556 6.07737 14.0233 6.40797 13.5326 6.39657C13.4742 6.39657 13.4742 6.36237 13.4625 6.31677C13.2873 5.82657 13.1237 5.33636 12.9485 4.84616C12.7615 4.31035 12.5396 3.79735 12.1891 3.35275C12.1657 3.35275 12.1657 3.34135 12.154 3.30715C12.4578 3.29575 12.7031 3.42115 12.9251 3.59215ZM9.53705 2.90814C9.92259 2.87394 10.2964 2.89674 10.6703 3.01074C11.196 3.18175 11.5699 3.52375 11.8503 3.96835C12.0722 4.32175 12.2358 4.70936 12.3643 5.10836C12.5746 5.74677 12.8316 6.37377 13.0186 7.01218C13.1704 7.50238 13.2055 8.00398 13.1471 8.50559C13.0536 9.31499 12.5863 9.8394 11.8152 10.1244C11.2661 10.3296 10.6937 10.3866 10.1212 10.398C10.0511 10.398 10.0628 10.3638 10.0628 10.3182C10.0628 10.1358 10.0745 9.942 10.0745 9.7596C10.0745 9.58859 10.0862 9.40619 10.0862 9.23519C10.0862 9.15539 10.1095 9.13259 10.1796 9.09839C10.5535 8.92739 10.8339 8.65379 10.9974 8.27759C11.2077 7.82158 10.9974 7.37698 10.4951 7.24018C10.0394 7.12618 9.56042 7.11478 9.0931 7.21738C8.56737 7.35418 8.35708 7.84438 8.6141 8.34599C8.78935 8.67659 9.03469 8.92739 9.37349 9.09839C9.43191 9.12119 9.45527 9.15539 9.45527 9.21239C9.44359 9.57719 9.44359 9.942 9.44359 10.3068C9.44359 10.3524 9.45527 10.398 9.37349 10.3866C8.88281 10.3524 8.40381 10.3068 7.93649 10.1586C7.58601 10.0446 7.25889 9.885 6.99018 9.6456C6.61633 9.30359 6.45276 8.87039 6.41772 8.38019C6.37098 7.71898 6.4995 7.09198 6.74484 6.48777C7.00186 5.86077 7.22384 5.22236 7.48086 4.60676C7.62106 4.27615 7.7963 3.95695 8.02996 3.68335C8.41549 3.20455 8.92954 2.96514 9.53705 2.90814ZM10.1446 11.0136L10.2147 11.2188L10.3081 11.481C10.4016 11.7318 10.3315 11.8572 10.0862 11.9484L5.4714 13.59C5.4013 13.6128 5.3312 13.6242 5.28447 13.6242C5.19101 13.6242 5.08586 13.59 5.00408 13.3734L3.77738 10.0674L3.32174 8.85899L2.49226 6.60177L1.65109 4.35596C1.55762 4.10515 1.61604 3.97975 1.87306 3.88855L6.48781 2.24694C6.55791 2.22414 6.62801 2.21274 6.67474 2.21274C6.7682 2.21274 6.87335 2.24694 6.95513 2.46354L7.03691 2.66874V2.68014C6.8383 2.75994 6.65137 2.85114 6.47613 2.98794C5.96208 3.34135 5.57655 3.82015 5.22606 4.32175C5.00408 4.64096 4.81716 4.98296 4.73538 5.37056C4.67696 5.67836 4.70033 5.96337 4.86389 6.23697C5.09755 6.61317 5.43635 6.81837 5.86862 6.87537C5.93872 6.88677 5.9504 6.89817 5.92703 6.96657C5.78684 7.51378 5.74011 8.06098 5.8102 8.60819C5.90367 9.23519 6.17237 9.771 6.68642 10.1814C7.2472 10.6374 7.90145 10.8198 8.59074 10.9224C9.10479 11.0022 9.63052 11.025 10.1446 11.0136ZM9.67725 8.56259C9.44359 8.44859 9.26835 8.27759 9.1632 8.03818C9.0931 7.88998 9.12815 7.84438 9.28003 7.81018C9.44359 7.77598 9.61883 7.77598 9.79408 7.77598C9.981 7.78738 10.1679 7.78738 10.3432 7.84438C10.4366 7.86718 10.46 7.92418 10.425 8.00398C10.3198 8.27758 10.1212 8.47139 9.84081 8.57399C9.7824 8.59679 9.73566 8.58539 9.67725 8.56259ZM6.07891 6.28257C5.91535 6.27117 5.75179 6.23697 5.61159 6.14577C5.35457 5.96337 5.28447 5.72397 5.37794 5.39336C5.43635 5.18816 5.5415 4.98296 5.65833 4.80056C5.97376 4.31035 6.33594 3.85435 6.80325 3.50095C7.01354 3.34135 7.25889 3.22735 7.53928 3.23875C7.55096 3.23875 7.56264 3.23875 7.59769 3.25015C7.02523 3.91135 6.7682 4.70936 6.46445 5.48456C6.37098 5.73537 6.27752 5.97477 6.18406 6.21417C6.16069 6.27117 6.13733 6.28257 6.07891 6.28257ZM17.5048 9.999C17.4814 10.2384 17.4347 10.4778 17.3763 10.7172C17.2361 11.3442 16.7454 11.6634 16.1029 11.5266C15.3318 11.367 14.7476 11.1846 13.9766 11.0136C13.3924 10.8882 12.8083 10.7514 12.2241 10.626C12.2358 10.626 12.2358 10.626 12.2475 10.6146C13.1471 10.2156 13.6494 9.54299 13.7663 8.59679C13.813 8.28898 13.813 7.96978 13.778 7.66198C14.5373 8.15218 15.1565 8.24338 16.0444 7.94698C16.1729 7.90138 16.3131 7.85578 16.4417 7.81018C16.4884 7.79878 16.5234 7.79878 16.5819 7.81018C17.0492 7.94698 17.3062 8.26619 17.4347 8.71079C17.5515 9.13259 17.5399 9.56579 17.5048 9.999Z" fill="#1F2937" stroke="#1F2937" stroke-width="0.30001" stroke-miterlimit="10"/>
</g>
<path d="M4.53739 17.2141C3.01779 17.2141 1.80536 16.0161 1.80536 14.5586V9.29901H18.2148V14.5586C18.2148 16.0161 17.0023 17.2141 15.4827 17.2141H4.53739Z" stroke="#1F2937" stroke-width="0.857172"/>
<mask id="path-6-inside-1_795_29889" fill="white">
<path d="M18.2248 9.22942C18.2494 9.22942 18.274 9.25342 18.274 9.27743V14.5576C18.274 16.0577 17.0196 17.2817 15.4823 17.2817H4.53701C2.99974 17.2817 1.74533 16.0577 1.74533 14.5576V9.27743C1.74533 9.25342 1.76993 9.22942 1.79453 9.22942H18.2248ZM18.2248 8.5094H1.79453C1.36409 8.5094 1.00745 8.85741 1.00745 9.27743V14.5576C1.00745 16.4657 2.5939 18.0017 4.53701 18.0017H15.47C17.4254 18.0017 18.9996 16.4537 18.9996 14.5576V9.27743C19.0119 8.85741 18.6553 8.5094 18.2248 8.5094Z"/>
</mask>
<path d="M18.2248 9.22942C18.2494 9.22942 18.274 9.25342 18.274 9.27743V14.5576C18.274 16.0577 17.0196 17.2817 15.4823 17.2817H4.53701C2.99974 17.2817 1.74533 16.0577 1.74533 14.5576V9.27743C1.74533 9.25342 1.76993 9.22942 1.79453 9.22942H18.2248ZM18.2248 8.5094H1.79453C1.36409 8.5094 1.00745 8.85741 1.00745 9.27743V14.5576C1.00745 16.4657 2.5939 18.0017 4.53701 18.0017H15.47C17.4254 18.0017 18.9996 16.4537 18.9996 14.5576V9.27743C19.0119 8.85741 18.6553 8.5094 18.2248 8.5094Z" fill="#1F2937"/>
<path d="M18.9996 9.27743L18.1428 9.25234L18.1424 9.26488V9.27743H18.9996ZM18.2248 10.0866C17.9657 10.0866 17.7731 9.96829 17.66 9.85792C17.5482 9.74883 17.4168 9.55172 17.4168 9.27743H19.1312C19.1312 8.97913 18.9875 8.75802 18.8573 8.63093C18.7257 8.50255 18.5086 8.37225 18.2248 8.37225V10.0866ZM17.4168 9.27743V14.5576H19.1312V9.27743H17.4168ZM17.4168 14.5576C17.4168 15.5646 16.5661 16.4245 15.4823 16.4245V18.1389C17.4731 18.1389 19.1312 16.5507 19.1312 14.5576H17.4168ZM15.4823 16.4245H4.53701V18.1389H15.4823V16.4245ZM4.53701 16.4245C3.45322 16.4245 2.60251 15.5646 2.60251 14.5576H0.888162C0.888162 16.5507 2.54626 18.1389 4.53701 18.1389V16.4245ZM2.60251 14.5576V9.27743H0.888162V14.5576H2.60251ZM2.60251 9.27743C2.60251 9.55172 2.47114 9.74883 2.35935 9.85792C2.24623 9.96829 2.05367 10.0866 1.79453 10.0866V8.37225C1.51079 8.37225 1.29363 8.50255 1.16207 8.63093C1.03182 8.75802 0.888162 8.97913 0.888162 9.27743H2.60251ZM1.79453 10.0866H18.2248V8.37225H1.79453V10.0866ZM18.2248 7.65223H1.79453V9.36657H18.2248V7.65223ZM1.79453 7.65223C0.910613 7.65223 0.150275 8.36433 0.150275 9.27743H1.86462C1.86462 9.31548 1.84792 9.33993 1.83821 9.3494C1.8287 9.35868 1.81345 9.36657 1.79453 9.36657V7.65223ZM0.150275 9.27743V14.5576H1.86462V9.27743H0.150275ZM0.150275 14.5576C0.150275 16.9607 2.14239 18.8589 4.53701 18.8589V17.1445C3.04541 17.1445 1.86462 15.9707 1.86462 14.5576H0.150275ZM4.53701 18.8589H15.47V17.1445H4.53701V18.8589ZM15.47 18.8589C17.8809 18.8589 19.8568 16.9448 19.8568 14.5576H18.1424C18.1424 15.9625 16.97 17.1445 15.47 17.1445V18.8589ZM19.8568 14.5576V9.27743H18.1424V14.5576H19.8568ZM19.8564 9.30251C19.8839 8.36462 19.1029 7.65223 18.2248 7.65223V9.36657C18.2067 9.36657 18.1894 9.35912 18.1763 9.34615C18.1621 9.3322 18.1414 9.29918 18.1428 9.25234L19.8564 9.30251Z" fill="#1F2937" mask="url(#path-6-inside-1_795_29889)"/>
<defs>
<clipPath id="clip0_795_29889">
<rect width="18.0006" height="9.0003" fill="white" transform="translate(0.100403 0.00158691)"/>
</clipPath>
</defs>
</svg>
