<svg width="144" height="48" viewBox="0 0 144 48" fill="none" xmlns="http://www.w3.org/2000/svg">
<g clip-path="url(#clip0_795_7326)">
<g clip-path="url(#clip1_795_7326)">
<path d="M44.8685 36.4012L39.8505 31.8576L36.0273 36.0705L41.0453 40.6141L44.8685 36.4012Z" fill="black"/>
<path d="M51.2063 41.783C50.2829 40.8108 49.3121 39.8809 48.3612 38.9311C46.2754 36.8401 44.1845 34.7491 42.1011 32.6556C41.5236 32.0763 41.4987 31.8227 41.897 31.1042C41.9941 30.9301 42.0961 30.7611 42.1957 30.5895C42.93 29.3115 43.5373 27.9739 43.9928 26.5716C45.0582 23.2946 45.205 19.9679 44.533 16.5964C43.8634 13.2374 42.5466 10.1742 40.3313 7.52879C37.8994 4.62227 34.8254 2.62823 31.3132 1.27318C28.4034 0.151845 25.3916 -0.243481 22.2901 0.146872C19.674 0.477554 17.2322 1.3428 14.9123 2.57602C10.8774 4.72172 7.85564 7.82466 6.00373 12.0241C5.71996 12.6631 5.60546 12.7252 4.90353 12.5835C4.72929 12.5487 2.84751 12.3349 2.46667 12.392C1.22957 12.5785 0.418117 12.8073 -5.70837e-05 13.9634C-0.00254621 13.9709 0.0671494 14.9505 0.0920407 15.0524C0.253834 15.7188 0.400693 16.3876 0.567465 17.0514C0.741704 17.7575 0.764106 18.5159 1.28433 19.1051C1.35652 19.1847 1.37394 19.3239 1.39635 19.4383C1.76225 21.2807 2.11819 23.123 2.48658 24.9629C2.85746 26.8277 3.89792 28.1057 5.76975 28.6303C5.92158 28.6725 5.96888 28.762 6.02364 28.8814C6.6509 30.2489 7.39764 31.5517 8.33604 32.7302C8.59491 33.0584 8.61731 33.2971 8.4356 33.6676C6.84256 36.9694 7.44742 41.0818 10.4667 43.6452C11.2633 44.3215 12.1544 44.6397 13.1948 44.4806C14.3025 44.314 15.3504 43.9361 16.3934 43.5408C18.2278 42.8471 20.1096 42.3896 22.076 42.2976C23.0045 42.2529 23.9255 42.3747 24.8489 42.3523C26.8228 42.3076 28.5378 41.6213 29.9591 40.2439C30.091 40.1171 30.213 40.0052 30.3947 39.9505C32.1122 39.4433 33.7177 38.69 35.2361 37.7452C35.8658 37.3548 36.1869 37.3921 36.7121 37.9167C39.2585 40.4627 41.8049 43.0112 44.3488 45.5597C44.8964 46.1092 45.4216 46.681 46.0215 47.1758C47.0445 48.0162 48.1671 48.4488 49.5038 48.051C50.5193 47.7501 51.3383 47.2032 51.8336 46.2385C52.6401 44.6646 52.436 43.0758 51.2063 41.783ZM2.12815 18.0037C1.90164 17.0067 1.68508 16.0594 1.47102 15.1121C1.41875 14.8883 1.36399 14.667 1.33661 14.4408C1.29678 14.1101 1.45359 13.8664 1.77967 13.7993C2.47165 13.6626 3.17856 13.6079 3.88299 13.6054C4.224 13.6029 4.43308 13.8913 4.41566 14.2643C4.40321 14.5626 4.3385 14.8535 4.23893 15.137C3.8332 16.2832 3.08149 17.1782 2.12815 18.0037ZM3.81329 24.8809C3.46979 23.2101 3.13625 21.5343 2.79275 19.861C2.70065 19.4159 2.84253 19.125 3.1935 18.8068C4.56501 17.5661 5.63782 16.1365 5.71747 14.1797C5.72743 13.9684 5.81704 13.8888 6.02364 13.8664C7.04169 13.7595 8.05975 13.6402 9.0778 13.5208C9.40139 13.4835 9.44868 13.5159 9.40885 13.8515C9.29933 14.7541 9.26697 15.6516 9.34165 16.5591C9.56069 19.1748 10.6186 21.3702 12.5999 23.1106C12.9982 23.4587 12.9932 23.4612 12.7791 23.9361C12.3137 24.9778 11.8407 26.0196 11.3877 27.0664C11.2657 27.3498 11.094 27.4493 10.7928 27.4418C10.1382 27.4244 9.48104 27.4368 8.8264 27.4368V27.4294C8.11948 27.4294 7.41008 27.4692 6.70815 27.4219C5.15742 27.32 4.12443 26.3975 3.81329 24.8809ZM23.9802 41.047C21.7226 40.8133 19.5371 41.0694 17.4015 41.8178C16.1917 42.2429 14.9696 42.6283 13.7524 43.0336C12.6397 43.4016 11.7013 43.1007 10.8998 42.2827C8.88614 40.2191 8.32608 37.2553 9.47108 34.6174C12.1867 28.3617 15.0368 22.1658 17.7972 15.9276C18.2826 14.8287 18.7755 13.7347 19.2583 12.6357C19.557 11.9545 19.9926 11.4696 20.7892 11.3925C21.1501 11.3577 21.3417 11.0395 21.287 10.669C21.2347 10.2961 20.9111 10.0698 20.5004 10.1195C19.4251 10.2488 18.651 10.7933 18.2054 11.7904C17.0878 14.2916 15.9702 16.7904 14.8526 19.2916C14.4618 20.1618 14.0685 21.032 13.6877 21.9047C13.5881 22.1285 13.5284 22.1907 13.3093 21.9918C11.883 20.684 11.0392 19.0778 10.748 17.1683C10.4543 15.2414 10.5787 13.3592 11.3802 11.5616C12.2813 9.54769 13.6055 7.87439 15.5421 6.74808C16.6771 6.0892 17.9341 5.84057 19.2334 5.82068C20.6547 5.80079 22.0785 5.81571 23.5023 5.81571C25.2422 5.7809 26.9871 5.72122 28.722 5.86543C31.4999 6.09169 33.6057 7.46663 35.1066 9.78886C35.7314 10.7536 36.0674 11.8301 36.3437 12.9341C37.4464 17.3374 38.5591 21.7332 39.6692 26.134C39.6817 26.1812 39.7016 26.2285 39.7041 26.2782C39.7065 26.3528 39.7787 26.4423 39.7016 26.4995C39.6269 26.5592 39.5572 26.4821 39.49 26.4423C38.4122 25.7685 37.2398 25.4602 35.9679 25.5472C35.5572 25.5746 35.5173 25.5248 35.5845 25.1121C35.6542 24.6795 35.6966 24.2444 35.7065 23.8068C35.7115 23.5507 35.6617 23.307 35.4252 23.1529C35.0295 22.8943 34.5491 23.0957 34.4495 23.5979C34.3649 24.0256 34.3425 24.4657 34.2952 24.9008C34.116 26.594 33.5758 28.1902 33.0282 29.7889C32.1944 32.233 31.2734 34.6422 30.4221 37.0788C29.5559 39.5502 26.8651 41.3454 23.9802 41.047ZM31.6866 38.1106C31.6119 38.1405 31.5397 38.1703 31.465 38.1952C31.4501 38.2002 31.4302 38.1877 31.3879 38.1753C31.6667 37.4344 31.9504 36.6984 32.2267 35.96C33.2995 33.0982 34.3674 30.2364 35.1689 27.2852C35.2485 26.9893 35.4601 26.9122 35.719 26.8724C37.7451 26.5766 39.7713 27.7675 40.5255 29.6671C40.7321 30.1892 40.7097 30.5994 40.3662 31.0843C38.1409 34.2568 35.2809 36.6313 31.6866 38.1106ZM40.1347 39.508C39.2734 38.6552 38.4197 37.7949 37.5684 36.9296C37.3045 36.6636 37.2921 36.318 37.5709 36.0868C38.5914 35.2389 39.4751 34.2593 40.3786 33.2971C40.5703 33.0932 40.6922 33.128 40.8715 33.3071C41.785 34.2195 42.7109 35.1221 43.6294 36.0296C43.7589 36.1589 43.8435 36.3155 43.846 36.5219C43.8435 36.6934 43.7663 36.8526 43.6443 36.9893C42.8379 37.8819 41.9916 38.7347 41.093 39.5328C40.7794 39.8138 40.4384 39.8063 40.1347 39.508ZM49.683 46.5865C48.7844 47.0589 47.9182 46.9744 47.0993 46.3926C46.9375 46.2782 46.7881 46.1415 46.6487 46.0023C45.1652 44.5303 43.6867 43.056 42.2056 41.5791C41.673 41.047 41.6879 40.7138 42.2679 40.224C43.0146 39.5925 43.6966 38.8988 44.3363 38.1604C44.859 37.5587 45.1553 37.5438 45.7128 38.1032C47.1889 39.5801 48.6649 41.0619 50.141 42.5388C50.6687 43.0659 50.9923 43.6825 50.9972 44.6422C50.9723 45.4105 50.5417 46.1365 49.683 46.5865Z" fill="black"/>
<path d="M39.7041 26.278C39.7016 26.2283 39.6817 26.181 39.6693 26.1338C38.5591 21.733 37.4465 17.3372 36.3438 12.9339C36.0675 11.8299 35.7315 10.7534 35.1067 9.78867C33.6058 7.46644 31.5 6.09149 28.7221 5.86524C26.9872 5.72103 25.2423 5.7807 23.5024 5.81551C22.0786 5.81551 20.6548 5.80059 19.2335 5.82048C17.9342 5.84038 16.6772 6.08901 15.5421 6.74789C13.6056 7.87419 12.2814 9.54749 11.3803 11.5614C10.5788 13.359 10.4544 15.2412 10.7481 17.1681C11.0393 19.0776 11.8831 20.6838 13.3094 21.9916C13.5284 22.1905 13.5882 22.1283 13.6877 21.9046C14.0686 21.0319 14.4619 20.1616 14.8526 19.2914C15.9703 16.7902 17.0879 14.2914 18.2055 11.7902C18.6511 10.7931 19.4252 10.2486 20.5005 10.1193C20.9112 10.0696 21.2348 10.2959 21.287 10.6688C21.3418 11.0393 21.1501 11.3575 20.7892 11.3924C19.9927 11.4694 19.5571 11.9543 19.2584 12.6355C18.7755 13.7345 18.2827 14.8285 17.7973 15.9274C15.0368 22.1656 12.1868 28.3616 9.47115 34.6172C8.32615 37.2552 8.8862 40.2189 10.8999 42.2825C11.7014 43.1005 12.6398 43.4014 13.7525 43.0334C14.9696 42.6281 16.1918 42.2427 17.4015 41.8176C19.5372 41.0692 21.7226 40.8131 23.9803 41.0468C26.8652 41.3452 29.5559 39.55 30.4222 37.0786C31.2734 34.642 32.1944 32.2328 33.0283 29.7887C33.5759 28.19 34.116 26.5938 34.2952 24.9006C34.3425 24.4655 34.3649 24.0254 34.4496 23.5977C34.5491 23.0955 35.0295 22.8941 35.4253 23.1527C35.6618 23.3068 35.7116 23.5505 35.7066 23.8066C35.6966 24.2442 35.6543 24.6793 35.5846 25.1119C35.5174 25.5247 35.5572 25.5744 35.9679 25.547C37.2399 25.46 38.4123 25.7683 39.4901 26.4421C39.5573 26.4819 39.627 26.559 39.7016 26.4993C39.7788 26.4421 39.7066 26.3526 39.7041 26.278ZM14.2503 13.185C13.8918 13.7569 13.2372 13.7743 12.8564 13.2223C12.5477 12.7748 12.5502 12.091 12.8589 11.646C13.2198 11.1313 13.8769 11.1387 14.2279 11.6609C14.3822 11.8921 14.4519 12.1457 14.4594 12.4341C14.4494 12.6927 14.3971 12.9513 14.2503 13.185ZM35.7041 20.7932C35.6742 21.1611 35.4477 21.3874 35.0967 21.4048C34.7508 21.4222 34.4919 21.2134 34.4421 20.8479C34.3276 20.0224 34.2803 19.187 34.0911 18.3715C33.6879 16.6509 33.2747 14.9329 32.7868 13.2347C32.4981 12.2253 31.597 11.5067 30.5416 11.4122C29.531 11.3252 28.518 11.2556 27.5074 11.176C27.4103 11.1686 27.3083 11.1586 27.2137 11.1338C26.8478 11.0418 26.6661 10.813 26.6885 10.4799C26.7134 10.1318 26.9374 9.86326 27.3107 9.88563C28.7271 9.97763 30.1658 9.90055 31.5448 10.3083C32.7968 10.6788 33.6431 11.5192 34.0065 12.7723C34.579 14.734 35.1565 16.6982 35.4875 18.7196C35.5871 19.3188 35.6643 19.918 35.7041 20.5023C35.7041 20.6141 35.7116 20.7037 35.7041 20.7932Z" fill="#E68A8A"/>
<path d="M35.7041 20.7932C35.6742 21.1611 35.4477 21.3874 35.0967 21.4048C34.7507 21.4222 34.4919 21.2134 34.4421 20.8479C34.3276 20.0224 34.2803 19.187 34.0911 18.3715C33.6879 16.6509 33.2747 14.9329 32.7868 13.2347C32.4981 12.2253 31.597 11.5067 30.5416 11.4122C29.531 11.3252 28.5179 11.2556 27.5074 11.176C27.4103 11.1686 27.3082 11.1586 27.2136 11.1338C26.8477 11.0418 26.666 10.813 26.6884 10.4799C26.7133 10.1318 26.9373 9.86326 27.3107 9.88564C28.727 9.97764 30.1657 9.90056 31.5447 10.3083C32.7968 10.6788 33.6431 11.5192 34.0065 12.7723C34.579 14.734 35.1565 16.6982 35.4875 18.7196C35.5871 19.3188 35.6642 19.918 35.7041 20.5023C35.7041 20.6142 35.7115 20.7037 35.7041 20.7932Z" fill="black"/>
<path d="M14.4593 12.4341C14.4494 12.6927 14.3971 12.9513 14.2503 13.185C13.8918 13.7569 13.2372 13.7743 12.8563 13.2223C12.5477 12.7748 12.5502 12.091 12.8588 11.646C13.2198 11.1313 13.8769 11.1388 14.2279 11.6609C14.3822 11.8921 14.4519 12.1457 14.4593 12.4341Z" fill="black"/>
<path d="M3.96767 17.0537C2.90232 17.7748 1.87431 18.287 0.980713 18.0483V13.5729H5.21223L3.96767 17.0537Z" fill="black"/>
</g>
</g>
<g clip-path="url(#clip2_795_7326)">
<path d="M46.3691 12.2709C46.489 12.084 46.6515 11.9794 46.8839 11.9819C48.6281 11.9993 50.1624 11.3865 51.5868 10.4373C52.1191 10.0835 52.6439 9.72223 53.1787 9.37343C53.4385 9.20402 53.7209 9.07945 54.0283 9.01218C54.5231 8.90256 54.683 9.04208 54.5731 9.52541C54.4406 10.1084 54.3507 10.6988 54.2607 11.2893C54.0858 12.4503 53.9733 13.6212 53.8634 14.7897C53.8384 15.0538 53.8659 15.121 54.1657 15.0438C57.1245 14.2665 59.8533 14.7324 62.1998 16.7354C65.9857 19.9643 65.6233 25.5574 61.5001 28.3477C60.0357 29.3393 58.4114 29.8301 56.6522 29.8376C53.4236 29.8525 50.1974 29.8401 46.9688 29.8475C46.7064 29.8475 46.509 29.7728 46.3666 29.5536C46.3666 29.4738 46.3666 29.3941 46.3666 29.3144C46.459 29.1101 46.6115 28.9606 46.7914 28.8286C47.766 28.1061 48.2933 27.1519 48.2908 25.9261C48.2908 22.5802 48.2958 19.2368 48.2958 15.8934C48.2958 14.6726 47.7985 13.7034 46.8164 12.9785C46.639 12.8464 46.484 12.6994 46.3691 12.5101C46.3691 12.4304 46.3691 12.3506 46.3691 12.2709ZM54.2532 22.2713C54.2657 23.6814 54.4031 25.0741 54.8329 26.4244C55.0454 27.0921 55.3002 27.7423 55.8025 28.2581C56.3398 28.8086 56.9071 28.8086 57.4468 28.263C57.8641 27.842 58.119 27.3213 58.299 26.7707C59.2086 23.9754 59.2161 21.1551 58.4889 18.3225C58.304 17.6049 58.0291 16.9198 57.5368 16.3468C56.9745 15.6941 56.2873 15.6965 55.7226 16.3418C55.3227 16.8027 55.0803 17.3458 54.8879 17.9164C54.4106 19.329 54.2657 20.7914 54.2532 22.2713Z" fill="black"/>
<path d="M103.675 25.6919C102.903 25.2983 102.21 24.8648 101.613 24.2968C100.556 23.2927 99.8938 22.1069 99.9388 20.607C99.9713 19.4934 100.424 18.5442 101.148 17.7171C102.32 16.3817 103.837 15.6143 105.521 15.1435C107.318 14.6377 109.145 14.5754 110.984 14.8594C111.144 14.8844 111.206 14.8619 111.261 14.7025C111.824 13.0482 113.041 12.1364 114.692 11.7378C115.29 11.5933 115.897 11.5484 116.499 11.7328C117.599 12.0691 118.173 13.2874 117.741 14.3512C117.464 15.0313 116.862 15.3602 116.127 15.2356C115.31 15.0961 114.495 14.9442 113.665 14.9043C113.226 14.8819 112.788 14.9068 112.371 15.1061C112.453 15.2332 112.586 15.2232 112.693 15.2581C114.285 15.7788 115.732 16.5411 116.804 17.864C118.373 19.8023 118.228 22.2439 116.479 24.0302C115.14 25.398 113.478 26.1504 111.641 26.5515C109.512 27.0174 107.396 26.9252 105.306 26.2998C105.117 26.2425 104.984 26.26 104.852 26.3995C104.729 26.529 104.584 26.6412 104.472 26.7782C104.137 27.1793 104.229 27.5929 104.707 27.8221C105.059 27.9915 105.439 27.999 105.821 27.9691C107.031 27.8744 108.203 27.5729 109.392 27.3686C110.674 27.1469 111.954 26.9476 113.263 27.0821C116.754 27.4384 118.818 30.58 117.696 33.8935C116.819 36.4796 114.985 38.2111 112.546 39.3422C110.929 40.0921 109.217 40.269 107.453 40.0996C105.411 39.9027 103.5 39.3198 101.778 38.1961C100.434 37.3192 99.3291 36.218 98.6518 34.7356C98.3945 34.1726 98.2245 33.5946 98.3895 32.9717C98.5644 32.3165 98.9967 31.8531 99.569 31.5292C100.878 30.7868 102.273 30.6124 103.735 30.9836C103.96 31.0409 104.169 31.1381 104.364 31.2577C104.929 31.604 105.222 32.1022 105.087 32.7674C104.669 34.8403 105.529 36.3774 107.133 37.5808C108.308 38.4627 109.647 38.9336 111.131 38.8589C112.209 38.804 113.186 38.4901 113.753 37.4637C114.145 36.7511 114.203 35.9763 114.048 35.199C113.615 33.0265 112.291 31.5143 110.402 30.453C108.982 29.6557 107.428 29.3916 105.819 29.3543C105.102 29.3368 104.379 29.3443 103.672 29.1898C103.222 29.0927 102.815 28.9183 102.528 28.5371C102.183 28.0787 102.128 27.6003 102.423 27.0921C102.735 26.554 103.18 26.1279 103.675 25.6919ZM111.276 20.5423C111.294 20.0863 111.224 19.4236 111.077 18.7709C110.869 17.8491 110.577 16.9597 109.87 16.282C109.27 15.704 108.555 15.7115 107.948 16.282C107.523 16.6806 107.248 17.1764 107.058 17.7171C106.351 19.7326 106.356 21.7556 107.046 23.7761C107.243 24.3566 107.533 24.8922 108.005 25.3033C108.583 25.8041 109.207 25.8065 109.792 25.3207C110.089 25.0741 110.304 24.7651 110.482 24.4263C111.084 23.2753 111.274 22.0371 111.276 20.5423Z" fill="black"/>
<path d="M73.9475 29.8401C71.4585 29.8401 68.9696 29.8401 66.4807 29.8401C66.2383 29.8401 65.9709 29.8625 65.8734 29.576C65.7735 29.282 65.9184 29.0603 66.1633 28.8884C67.2828 28.1011 67.7626 27.0198 67.7551 25.6595C67.7351 21.5338 67.7301 17.4081 67.7576 13.2824C67.7676 11.8598 67.3178 10.7138 66.1358 9.88416C66.0558 9.82685 65.9809 9.7546 65.9259 9.67239C65.716 9.36346 65.8784 9.03709 66.2533 9.01218C66.3232 9.00719 66.3932 9.00968 66.4632 9.00968C70.2815 9.00968 74.0999 9.0047 77.9183 9.01218C78.9928 9.01467 80.0523 9.15418 81.0369 9.62505C81.6916 9.93647 82.2389 10.375 82.4063 11.1124C82.7787 12.7418 81.7566 14.3811 79.6275 14.0248C78.4955 13.8355 77.6659 13.1753 77.0811 12.2036C76.8287 11.7851 76.5763 11.369 76.244 11.0053C75.6842 10.3949 74.962 10.1981 74.1674 10.1732C73.9824 10.1682 73.9824 10.2853 73.9724 10.4024C73.885 11.4238 73.7925 12.4453 73.7176 13.4692C73.5926 15.1484 73.5476 16.8301 73.5026 18.5118C73.4977 18.736 73.5476 18.8307 73.795 18.8232C74.3448 18.8058 74.8921 18.8232 75.4393 18.7385C76.0815 18.6388 76.5713 18.3224 76.9212 17.7768C77.1686 17.3907 77.421 17.007 77.6734 16.6258C77.7558 16.4988 77.8608 16.3916 78.0057 16.3318C78.2656 16.2247 78.523 16.3592 78.573 16.6333C78.588 16.7205 78.5855 16.8127 78.5855 16.9024C78.5855 18.5666 78.5855 20.2308 78.588 21.8951C78.588 22.1417 78.5905 22.3983 78.3006 22.483C78.0207 22.5653 77.8183 22.4183 77.6684 22.194C77.4809 21.9125 77.2735 21.6385 77.1211 21.3395C76.6763 20.4575 75.9516 20.0365 74.982 19.9991C74.5522 19.9842 74.1224 19.9917 73.6926 19.9792C73.5426 19.9742 73.5051 20.0365 73.5076 20.1735C73.5576 22.4631 73.6501 24.7502 73.87 27.0323C73.915 27.4982 73.9749 27.9616 74.0099 28.43C74.0224 28.6093 74.0849 28.6666 74.2648 28.6641C75.2744 28.6567 76.284 28.6766 77.2935 28.6542C78.4355 28.6293 79.3202 28.0662 80.0773 27.2565C80.6871 26.6063 81.1544 25.8464 81.6766 25.1314C81.7816 24.9869 81.8816 24.8349 82.054 24.7552C82.3838 24.6007 82.6787 24.7626 82.6812 25.1239C82.6887 26.3596 82.6937 27.5953 82.6787 28.8311C82.6712 29.4514 82.3863 29.7354 81.7741 29.8127C81.6367 29.8301 81.4942 29.8351 81.3568 29.8351C78.8853 29.8426 76.4164 29.8401 73.9475 29.8401Z" fill="black"/>
<path d="M92.5345 22.0645C92.6045 20.4052 92.517 18.8257 91.8448 17.3309C91.6624 16.9273 91.435 16.5561 91.1101 16.2521C90.9002 16.0578 90.6628 15.9158 90.378 15.8684C89.9881 15.8012 89.7657 15.9781 89.7282 16.3717C89.6832 16.8525 89.8257 17.296 90.0056 17.732C90.268 18.3698 90.1655 18.8058 89.5658 19.1571C88.3338 19.8746 87.0194 20.0091 85.675 19.5258C84.8728 19.2368 84.6179 18.6214 84.8378 17.7619C85.0252 17.0344 85.4601 16.4763 86.0373 16.0204C87.0519 15.2207 88.2414 14.8719 89.5008 14.7448C91.2351 14.5704 92.9144 14.7697 94.4712 15.6044C96.6952 16.7952 97.9472 18.6663 98.2371 21.1526C98.4095 22.64 98.2771 24.1398 98.3021 25.6321C98.3071 25.9809 98.3345 26.3272 98.3895 26.6735C98.537 27.5605 99.0542 28.2132 99.7314 28.7638C99.8164 28.8336 99.9089 28.8933 99.9913 28.9656C100.176 29.1275 100.286 29.3268 100.204 29.5735C100.121 29.8176 99.9064 29.8401 99.6865 29.8401C98.6469 29.8401 97.6074 29.8426 96.5678 29.8401C96.168 29.8401 95.7681 29.8475 95.3708 29.8176C94.1813 29.7329 93.3117 29.1226 92.6995 28.131C92.5645 27.9117 92.5145 27.9342 92.3621 28.1086C89.8657 30.9712 85.1552 30.1365 83.8183 26.6013C82.8937 24.1572 84.2531 21.3619 86.7995 20.465C88.8286 19.75 90.9977 20.3205 92.4096 21.9349C92.4421 21.9648 92.4696 21.9947 92.5345 22.0645ZM92.3846 25.1239C92.3846 24.2768 92.1897 23.6017 91.6874 23.0361C90.9002 22.1492 89.7457 22.1741 88.9935 23.0909C88.1014 24.1747 88.1439 25.971 89.0835 27.0099C89.7682 27.7672 90.8253 27.8071 91.5574 27.0946C92.1397 26.529 92.3721 25.8165 92.3846 25.1239Z" fill="black"/>
<path d="M135.031 23.8109C135.344 25.3033 136.781 26.6386 138.372 26.833C139.957 27.0273 141.404 26.6337 142.641 25.5873C142.783 25.4652 142.905 25.3182 143.03 25.1762C143.268 24.9047 143.483 24.8523 143.728 25.0193C143.992 25.2011 144.08 25.525 143.92 25.804C143.553 26.4493 143.095 27.0273 142.556 27.538C139.487 30.4554 134.454 30.6099 131.203 27.8868C127.07 24.4238 127.772 18.1754 132.597 15.7464C135.264 14.406 137.992 14.2515 140.716 15.6143C141.836 16.1749 142.785 16.9522 143.325 18.1132C143.93 19.4112 143.728 20.6693 142.968 21.8328C142.041 23.2529 140.656 23.9878 139.017 24.2868C137.738 24.521 136.493 24.364 135.281 23.9031C135.206 23.8757 135.126 23.8458 135.031 23.8109ZM138.697 19.5158C138.68 19.162 138.675 18.751 138.6 18.3498C138.465 17.6199 138.262 16.9148 137.768 16.3318C137.265 15.7464 136.676 15.699 136.098 16.2048C135.716 16.5386 135.449 16.9597 135.259 17.4255C134.799 18.5541 134.716 19.7226 134.946 20.911C135.091 21.6559 135.361 22.346 135.953 22.8642C136.548 23.3849 137.213 23.3426 137.755 22.7646C137.913 22.5951 138.037 22.4033 138.142 22.199C138.557 21.3719 138.68 20.4825 138.697 19.5158Z" fill="black"/>
<path d="M123.321 29.8201C122.002 29.8201 120.682 29.8201 119.365 29.8201C119.141 29.8201 118.908 29.8276 118.821 29.561C118.733 29.2994 118.848 29.1001 119.048 28.9332C119.293 28.7289 119.543 28.5296 119.77 28.3054C120.53 27.5555 120.71 26.6013 120.71 25.5898C120.71 22.4531 120.697 19.314 120.715 16.1774C120.722 14.8046 120.26 13.691 119.113 12.8912C119.073 12.8638 119.036 12.829 118.998 12.7966C118.826 12.6446 118.743 12.4602 118.823 12.236C118.898 12.0193 119.096 11.9844 119.291 11.9869C119.813 11.9919 120.328 11.9321 120.837 11.8274C122.144 11.5609 123.284 10.938 124.366 10.1906C124.841 9.86174 125.305 9.51544 125.82 9.24388C126.053 9.1218 126.295 9.02962 126.552 8.98976C126.945 8.92996 127.08 9.06699 126.995 9.45564C126.827 10.2255 126.702 11.0003 126.595 11.7776C126.235 14.3861 126.098 17.0095 126.135 19.6404C126.163 21.5139 126.275 23.3799 126.562 25.2335C126.705 26.1479 126.877 27.0572 127.222 27.9242C127.355 28.258 127.517 28.5744 127.802 28.8161C128.002 28.988 128.119 29.2098 128.019 29.4813C127.922 29.7479 127.679 29.8102 127.435 29.8152C126.855 29.8276 126.275 29.8201 125.695 29.8226C124.901 29.8226 124.111 29.8201 123.321 29.8201Z" fill="black"/>
</g>
<defs>
<clipPath id="clip0_795_7326">
<rect width="52.2379" height="48" fill="white"/>
</clipPath>
<clipPath id="clip1_795_7326">
<rect width="52.3165" height="48.2" fill="white"/>
</clipPath>
<clipPath id="clip2_795_7326">
<rect width="97.6307" height="31.187" fill="white" transform="translate(46.3694 8.97729)"/>
</clipPath>
</defs>
</svg>
