<svg width="1004" height="925" viewBox="0 0 1004 925" xmlns="http://www.w3.org/2000/svg">
 <circle class="icon-bg" cx="50%" cy="50%" r="75%" fill="white" />
<path d="M982.695 801.848C964.972 783.191 946.343 765.346 928.095 747.119C888.065 706.991 847.939 666.863 807.957 626.687C796.875 615.569 796.397 610.702 804.04 596.913C805.903 593.573 807.862 590.328 809.772 587.036C823.864 562.51 835.52 536.84 844.261 509.929C864.706 447.04 867.524 383.198 854.627 318.497C841.777 254.034 816.508 195.249 773.994 144.48C727.324 88.7018 668.329 50.4345 600.928 24.4299C545.087 2.91053 487.287 -4.67613 427.767 2.8151C377.562 9.16118 330.701 25.7659 286.181 49.4325C208.748 90.6104 150.757 150.159 115.217 230.749C109.771 243.012 107.574 244.205 94.1034 241.485C90.7596 240.817 54.6465 236.713 47.338 237.811C23.597 241.389 8.02442 245.779 -0.000705976 267.967C-0.0484746 268.11 1.28905 286.909 1.76673 288.866C4.87169 301.653 7.69003 314.488 10.8905 327.228C14.2343 340.779 14.6642 355.332 24.6479 366.641C26.0332 368.168 26.3676 370.84 26.7975 373.035C33.8195 408.391 40.6504 443.748 47.7201 479.057C54.8376 514.843 74.8049 539.369 110.727 549.436C113.641 550.248 114.548 551.965 115.599 554.256C127.637 580.499 141.968 605.501 159.976 628.118C164.944 634.417 165.374 638.997 161.887 646.107C131.315 709.472 142.923 788.392 200.866 837.586C216.152 850.565 233.253 856.672 253.221 853.619C274.478 850.422 294.588 843.169 314.603 835.582C349.809 822.27 385.922 813.49 423.659 811.725C441.477 810.866 459.151 813.204 476.873 812.775C514.753 811.916 547.666 798.746 574.942 772.312C577.474 769.879 579.814 767.732 583.301 766.682C616.262 756.948 647.072 742.491 676.211 724.359C688.297 716.868 694.459 717.583 704.538 727.651C753.405 776.511 802.273 825.419 851.092 874.327C861.601 884.872 871.68 895.846 883.193 905.341C902.825 921.469 924.369 929.771 950.021 922.137C969.51 916.364 985.226 905.866 994.732 887.353C1010.21 857.149 1006.29 826.66 982.695 801.848ZM40.8414 345.503C36.4945 326.37 32.3386 308.19 28.2305 290.011C27.2274 285.716 26.1765 281.47 25.651 277.128C24.8867 270.782 27.8961 266.106 34.1538 264.817C47.4335 262.193 60.9998 261.143 74.5183 261.096C81.0626 261.048 85.0751 266.583 84.7408 273.74C84.5019 279.466 83.2599 285.048 81.3492 290.488C73.5629 312.484 59.1368 329.662 40.8414 345.503ZM73.1808 477.482C66.5887 445.418 60.1877 413.258 53.5956 381.146C51.8282 372.605 54.551 367.023 61.2864 360.915C87.6069 337.105 108.195 309.669 109.724 272.118C109.915 268.062 111.634 266.535 115.599 266.106C135.137 264.054 154.674 261.764 174.211 259.473C180.421 258.758 181.329 259.378 180.565 265.819C178.463 283.14 177.842 300.365 179.275 317.781C183.478 367.977 203.78 410.109 241.804 443.509C249.447 450.19 249.351 450.237 245.243 459.351C236.31 479.343 227.234 499.336 218.541 519.424C216.2 524.863 212.904 526.772 207.124 526.629C194.561 526.295 181.95 526.533 169.387 526.533V526.39C155.82 526.39 142.206 527.154 128.736 526.247C98.9758 524.291 79.1518 506.588 73.1808 477.482ZM460.202 787.724C416.876 783.239 374.935 788.154 333.949 802.516C310.734 810.675 287.28 818.071 263.921 825.849C242.568 832.91 224.559 827.137 209.178 811.439C170.533 771.835 159.785 714.959 181.759 664.334C233.874 544.283 288.569 425.378 341.545 305.661C350.859 284.571 360.318 263.577 369.585 242.487C375.317 229.413 383.676 220.109 398.962 218.629C405.889 217.961 409.567 211.854 408.516 204.744C407.513 197.587 401.303 193.245 393.421 194.199C372.785 196.681 357.929 207.13 349.379 226.264C327.931 274.265 306.482 322.218 285.034 370.219C277.535 386.92 269.987 403.62 262.679 420.368C260.768 424.662 259.622 425.855 255.418 422.038C228.046 396.94 211.853 366.116 206.264 329.471C200.627 292.492 203.016 256.372 218.397 221.874C235.689 183.225 261.102 151.113 298.266 129.498C320.049 116.854 344.172 112.082 369.107 111.7C396.383 111.319 423.707 111.605 451.03 111.605C484.42 110.937 517.906 109.792 551.201 112.559C604.511 116.901 644.923 143.288 673.727 187.853C685.717 206.367 692.166 227.027 697.468 248.213C718.63 332.716 739.982 417.075 761.287 501.531C761.526 502.437 761.908 503.344 761.956 504.298C762.004 505.73 763.389 507.447 761.908 508.545C760.475 509.69 759.138 508.211 757.848 507.447C737.164 494.517 714.665 488.6 690.255 490.27C682.373 490.795 681.609 489.841 682.899 481.92C684.236 473.618 685.048 465.267 685.24 456.87C685.335 451.955 684.38 447.279 679.842 444.321C672.247 439.358 663.027 443.223 661.116 452.862C659.492 461.069 659.062 469.514 658.155 477.864C654.715 510.358 644.35 540.991 633.841 571.672C617.838 618.575 600.164 664.811 583.827 711.571C567.203 759 515.566 793.45 460.202 787.724ZM608.093 731.373C606.66 731.946 605.275 732.518 603.842 732.995C603.555 733.091 603.173 732.852 602.361 732.614C607.711 718.395 613.157 704.271 618.459 690.1C639.047 635.18 659.54 580.26 674.922 523.623C676.45 517.945 680.51 516.465 685.478 515.702C724.362 510.024 763.246 532.879 777.719 569.333C781.684 579.354 781.254 587.227 774.662 596.531C731.957 657.415 677.071 702.983 608.093 731.373ZM770.22 758.189C753.692 741.823 737.307 725.313 720.97 708.709C715.907 703.603 715.668 696.971 721.018 692.533C740.603 676.262 757.561 657.463 774.901 638.997C778.579 635.085 780.92 635.753 784.359 639.188C801.89 656.699 819.66 674.02 837.287 691.436C839.771 693.917 841.395 696.923 841.443 700.883C841.395 704.176 839.914 707.229 837.574 709.854C822.096 726.983 805.855 743.349 788.611 758.666C782.592 764.058 776.048 763.915 770.22 758.189ZM953.46 894.033C936.216 903.099 919.592 901.477 903.876 890.311C900.771 888.116 897.905 885.492 895.23 882.82C866.76 854.573 838.386 826.278 809.963 797.935C799.741 787.724 800.027 781.331 811.158 771.931C825.488 759.811 838.577 746.499 850.853 732.327C860.885 720.78 866.569 720.494 877.269 731.23C905.596 759.573 933.923 788.011 962.25 816.353C972.376 826.469 978.586 838.302 978.682 856.72C978.204 871.464 969.94 885.397 953.46 894.033Z" fill="black" />
<path d="M761.956 504.298C761.908 503.344 761.526 502.437 761.287 501.531C739.982 417.076 718.63 332.716 697.468 248.213C692.166 227.027 685.717 206.367 673.727 187.853C644.923 143.288 604.511 116.901 551.201 112.559C517.906 109.792 484.42 110.937 451.03 111.605C423.707 111.605 396.383 111.319 369.107 111.701C344.172 112.082 320.049 116.854 298.266 129.498C261.102 151.113 235.689 183.225 218.397 221.874C203.016 256.372 200.627 292.492 206.264 329.471C211.853 366.116 228.046 396.94 255.418 422.038C259.621 425.855 260.768 424.662 262.679 420.368C269.987 403.62 277.535 386.92 285.034 370.22C306.482 322.218 327.931 274.265 349.379 226.264C357.929 207.13 372.785 196.681 393.421 194.2C401.303 193.245 407.513 197.587 408.516 204.744C409.567 211.854 405.889 217.961 398.962 218.63C383.676 220.109 375.317 229.413 369.585 242.487C360.318 263.577 350.859 284.571 341.545 305.661C288.569 425.378 233.874 544.283 181.759 664.334C159.785 714.959 170.533 771.835 209.178 811.439C224.559 827.137 242.568 832.91 263.921 825.849C287.279 818.071 310.734 810.675 333.949 802.516C374.935 788.154 416.876 783.239 460.202 787.724C515.565 793.45 567.203 759 583.827 711.572C600.164 664.811 617.838 618.575 633.841 571.672C644.35 540.991 654.715 510.358 658.155 477.864C659.062 469.514 659.492 461.069 661.116 452.862C663.027 443.223 672.246 439.358 679.842 444.321C684.38 447.279 685.335 451.955 685.24 456.87C685.048 465.268 684.236 473.618 682.899 481.92C681.609 489.841 682.373 490.795 690.255 490.27C714.665 488.6 737.164 494.517 757.848 507.447C759.137 508.211 760.475 509.69 761.908 508.545C763.389 507.447 762.004 505.73 761.956 504.298ZM273.474 253.032C266.596 264.006 254.033 264.34 246.724 253.748C240.801 245.159 240.848 232.037 246.772 223.496C253.698 213.619 266.309 213.763 273.044 223.783C276.006 228.22 277.344 233.087 277.487 238.622C277.296 243.584 276.293 248.547 273.474 253.032ZM685.192 399.039C684.619 406.101 680.272 410.443 673.536 410.777C666.896 411.111 661.928 407.103 660.973 400.089C658.776 384.248 657.868 368.216 654.238 352.565C646.499 319.546 638.57 286.575 629.207 253.986C623.666 234.614 606.374 220.824 586.12 219.011C566.726 217.341 547.284 216.005 527.89 214.478C526.027 214.335 524.068 214.144 522.253 213.667C515.231 211.902 511.744 207.512 512.174 201.118C512.652 194.438 516.951 189.285 524.116 189.714C551.296 191.48 578.907 190.001 605.37 197.826C629.398 204.935 645.639 221.063 652.614 245.111C663.6 282.758 674.683 320.453 681.036 359.245C682.947 370.744 684.427 382.244 685.192 393.457C685.192 395.604 685.335 397.322 685.192 399.039Z" fill="#E68A8A"/>
<path d="M685.192 399.039C684.619 406.101 680.272 410.443 673.536 410.777C666.897 411.111 661.929 407.103 660.973 400.089C658.776 384.248 657.868 368.216 654.238 352.565C646.499 319.547 638.57 286.576 629.207 253.986C623.666 234.614 606.374 220.825 586.12 219.011C566.726 217.341 547.284 216.005 527.89 214.478C526.027 214.335 524.069 214.144 522.253 213.667C515.231 211.902 511.744 207.512 512.174 201.118C512.652 194.438 516.951 189.285 524.116 189.714C551.297 191.48 578.907 190.001 605.371 197.826C629.398 204.936 645.64 221.063 652.614 245.111C663.601 282.758 674.683 320.453 681.036 359.245C682.947 370.745 684.428 382.244 685.192 393.457C685.192 395.604 685.335 397.322 685.192 399.039Z" fill="black"/>
<path d="M277.486 238.622C277.295 243.584 276.292 248.547 273.474 253.032C266.595 264.006 254.032 264.34 246.723 253.748C240.8 245.159 240.848 232.037 246.771 223.496C253.698 213.619 266.308 213.763 273.044 223.783C276.005 228.22 277.343 233.087 277.486 238.622Z" fill="black"/>
<path d="M76.1426 327.276C55.6977 341.114 35.9692 350.943 18.8203 346.362V260.476H100.027L76.1426 327.276Z" fill="black" />
</svg>
